<svg width="1024" height="1024" viewBox="0 0 1024 1024" fill="none" xmlns="http://www.w3.org/2000/svg">
<path d="M794 0H230C102.975 0 0 102.975 0 230V794C0 921.026 102.975 1024 230 1024H794C921.026 1024 1024 921.026 1024 794V230C1024 102.975 921.026 0 794 0Z" fill="#1C1C1C"/>
<path d="M794 0H230C102.975 0 0 102.975 0 230V794C0 921.026 102.975 1024 230 1024H794C921.026 1024 1024 921.026 1024 794V230C1024 102.975 921.026 0 794 0Z" fill="black" fill-opacity="0.2"/>
<g filter="url(#filter0_iii_159_237)">
<circle cx="512" cy="512" r="322" fill="white"/>
</g>
<rect x="352.823" y="460.083" width="319.57" height="105.049" rx="52.5244" fill="white"/>
<rect x="352.823" y="460.083" width="319.57" height="105.049" rx="52.5244" fill="#161616"/>
<circle cx="404.794" cy="512.607" r="38.7022" fill="white"/>
<circle cx="512.607" cy="512.607" r="38.7022" fill="white"/>
<circle cx="620.421" cy="512.607" r="38.7022" fill="white"/>
<defs>
<filter id="filter0_iii_159_237" x="190" y="110.525" width="710" height="723.475" filterUnits="userSpaceOnUse" color-interpolation-filters="sRGB">
<feFlood flood-opacity="0" result="BackgroundImageFix"/>
<feBlend mode="normal" in="SourceGraphic" in2="BackgroundImageFix" result="shape"/>
<feColorMatrix in="SourceAlpha" type="matrix" values="0 0 0 0 0 0 0 0 0 0 0 0 0 0 0 0 0 0 127 0" result="hardAlpha"/>
<feMorphology radius="21" operator="erode" in="SourceAlpha" result="effect1_innerShadow_159_237"/>
<feOffset dx="52.1557" dy="-39"/>
<feComposite in2="hardAlpha" operator="arithmetic" k2="-1" k3="1"/>
<feColorMatrix type="matrix" values="0 0 0 0 1 0 0 0 0 1 0 0 0 0 1 0 0 0 0.5 0"/>
<feBlend mode="normal" in2="shape" result="effect1_innerShadow_159_237"/>
<feColorMatrix in="SourceAlpha" type="matrix" values="0 0 0 0 0 0 0 0 0 0 0 0 0 0 0 0 0 0 127 0" result="hardAlpha"/>
<feMorphology radius="7.45082" operator="erode" in="SourceAlpha" result="effect2_innerShadow_159_237"/>
<feOffset dx="52.1557" dy="-79.4754"/>
<feGaussianBlur stdDeviation="76.1225"/>
<feComposite in2="hardAlpha" operator="arithmetic" k2="-1" k3="1"/>
<feColorMatrix type="matrix" values="0 0 0 0 1 0 0 0 0 1 0 0 0 0 1 0 0 0 0.5 0"/>
<feBlend mode="normal" in2="effect1_innerShadow_159_237" result="effect2_innerShadow_159_237"/>
<feColorMatrix in="SourceAlpha" type="matrix" values="0 0 0 0 0 0 0 0 0 0 0 0 0 0 0 0 0 0 127 0" result="hardAlpha"/>
<feMorphology radius="7.45082" operator="erode" in="SourceAlpha" result="effect3_innerShadow_159_237"/>
<feOffset dx="66" dy="-33"/>
<feGaussianBlur stdDeviation="50.5414"/>
<feComposite in2="hardAlpha" operator="arithmetic" k2="-1" k3="1"/>
<feColorMatrix type="matrix" values="0 0 0 0 0.419608 0 0 0 0 0.737255 0 0 0 0 0.921569 0 0 0 1 0"/>
<feBlend mode="normal" in2="effect2_innerShadow_159_237" result="effect3_innerShadow_159_237"/>
</filter>
</defs>
</svg>
