<svg width="1024" height="1024" viewBox="0 0 1024 1024" fill="none" xmlns="http://www.w3.org/2000/svg">
<path d="M794 0H230C102.975 0 0 102.975 0 230V794C0 921.026 102.975 1024 230 1024H794C921.026 1024 1024 921.026 1024 794V230C1024 102.975 921.026 0 794 0Z" fill="#1C1C1C"/>
<path d="M794 0H230C102.975 0 0 102.975 0 230V794C0 921.026 102.975 1024 230 1024H794C921.026 1024 1024 921.026 1024 794V230C1024 102.975 921.026 0 794 0Z" fill="black" fill-opacity="0.2"/>
<circle cx="512" cy="512" r="265" fill="white"/>
<rect x="381" y="469.273" width="263" height="86.4533" rx="43.2266" fill="white"/>
<rect x="381" y="469.273" width="263" height="86.4533" rx="43.2266" fill="#161616"/>
<circle cx="423.772" cy="512.5" r="31.8512" fill="white"/>
<circle cx="512.5" cy="512.5" r="31.8512" fill="white"/>
<circle cx="601.228" cy="512.5" r="31.8512" fill="white"/>
</svg>
